# xmcd
#
# Track frame offsets:
#	150
#	16429
#	47326
#	80494
#	99469
#	112463
#	129256
#	145855
#	163478
#	181962
#	197391
#	217726
#	233594
#	251954
#
# Disc length: 3575 seconds
#
# Revision: 1
# Processed by: cddbd v1.5.1PL0 Copyright (c) Steve Scherf et al.
# Submitted via: audiograbber 1.82.01
#
DISCID=bd0df50e
DTITLE=Joe Bonamassa - Blues Delux
DYEAR=2003
DGENRE=Blues
TTITLE0=You Upset Me Baby
TTITLE1=Burning Hell
TTITLE2=Blues Deluxe
TTITLE3=Man Of Many Words
TTITLE4=Woke Up Dreaming
TTITLE5=I Don't Live Anywhere
TTITLE6=Wild About You Baby
TTITLE7=Long Distance Blues
TTITLE8=Pack It Up
TTITLE9=Left Overs
TTITLE10=Walking Blues
TTITLE11=Mumbling Word
TTITLE12=It's On You
TTITLE13=Revenge Of The 10 Gallon Hat
EXTD=
EXTT0=
EXTT1=
EXTT2=
EXTT3=
EXTT4=
EXTT5=
EXTT6=
EXTT7=
EXTT8=
EXTT9=
EXTT10=
EXTT11=
EXTT12=
EXTT13=
PLAYORDER=
